<?xml version="1.0" standalone="no"?>
<!DOCTYPE svg PUBLIC "-//W3C//DTD SVG 20010904//EN"
 "http://www.w3.org/TR/2001/REC-SVG-20010904/DTD/svg10.dtd">
<svg version="1.0" xmlns="http://www.w3.org/2000/svg"
 width="360.000000pt" height="360.000000pt" viewBox="0 0 360.000000 360.000000"
 preserveAspectRatio="xMidYMid meet">

<g transform="translate(0.000000,360.000000) scale(0.100000,-0.100000)"
fill="#000000" stroke="none">
<path d="M783 3239 c1 -11 9 -19 19 -19 23 0 22 2 -1 22 -18 16 -20 15 -18 -3z"/>
<path d="M2935 3230 c-4 -12 -16 -30 -28 -40 -11 -11 -19 -20 -16 -21 2 0 20
-1 39 -2 29 -2 35 2 35 18 1 11 4 30 9 43 6 18 4 22 -13 22 -11 0 -22 -9 -26
-20z"/>
<path d="M1878 3193 c45 -2 119 -2 165 0 45 1 8 3 -83 3 -91 0 -128 -2 -82 -3z"/>
<path d="M2263 3183 c9 -2 23 -2 30 0 6 3 -1 5 -18 5 -16 0 -22 -2 -12 -5z"/>
<path d="M2353 3183 c9 -2 25 -2 35 0 9 3 1 5 -18 5 -19 0 -27 -2 -17 -5z"/>
<path d="M2445 3182 c31 -3 35 -6 20 -11 -10 -4 54 -8 143 -7 89 0 162 3 162
7 0 3 -51 9 -112 12 -125 8 -281 7 -213 -1z"/>
<path d="M1922 3163 c92 -2 245 -2 340 0 95 1 20 3 -167 3 -187 0 -265 -2
-173 -3z"/>
<path d="M2992 3130 c0 -14 2 -19 5 -12 2 6 2 18 0 25 -3 6 -5 1 -5 -13z"/>
<path d="M2851 3098 c-11 -24 -29 -54 -38 -67 -12 -17 -14 -23 -4 -20 15 5 76
117 69 125 -3 3 -15 -15 -27 -38z"/>
<path d="M909 3085 c17 -33 31 -51 31 -40 0 6 -10 21 -21 35 -13 17 -17 18
-10 5z"/>
<path d="M3028 3083 c6 -2 18 -2 25 0 6 3 1 5 -13 5 -14 0 -19 -2 -12 -5z"/>
<path d="M2993 3010 c0 -30 2 -43 4 -27 2 15 2 39 0 55 -2 15 -4 2 -4 -28z"/>
<path d="M3083 3010 c0 -30 2 -43 4 -27 2 15 2 39 0 55 -2 15 -4 2 -4 -28z"/>
<path d="M2758 3003 c7 -3 16 -2 19 1 4 3 -2 6 -13 5 -11 0 -14 -3 -6 -6z"/>
<path d="M622 1842 c-1 -73 -11 -223 -22 -335 -18 -181 -90 -1010 -90 -1030 0
-5 24 -5 54 -2 54 7 54 7 58 -21 3 -25 8 -30 43 -34 l39 -5 -3 -48 -3 -47 835
0 c848 0 871 -1 1237 -40 201 -22 178 -24 182 13 l3 32 68 3 67 3 -2 677 -3
677 -2 -667 -3 -668 -24 -6 c-12 -3 -40 -4 -62 -2 l-39 3 4 185 c2 114 8 190
14 199 8 9 12 153 13 460 1 278 -1 405 -6 336 -4 -60 -8 -259 -9 -441 l-1
-331 -82 -6 c-46 -4 -106 -7 -135 -7 -28 0 -55 -4 -58 -10 -3 -5 3 -70 15
-144 11 -74 20 -139 20 -145 0 -8 -298 -11 -1045 -11 l-1045 1 -1 537 c-1 295
-5 643 -8 772 -6 183 -8 206 -9 102z m-2 -825 l0 -523 -36 -2 c-20 -2 -41 -4
-47 -5 -7 -1 -10 11 -9 28 1 17 13 158 26 315 14 157 33 381 42 498 10 116 19
212 21 212 2 0 3 -235 3 -523z m2330 -285 c0 -4 -8 -19 -17 -32 -31 -47 -184
-250 -187 -250 -7 0 -39 261 -33 267 4 3 55 9 114 13 59 4 111 8 116 8 4 1 7
-1 7 -6z m-14 -449 c-2 -2 -172 12 -379 32 -418 39 -441 40 -431 23 5 -8 -93
-10 -407 -5 -228 4 -546 7 -706 7 l-293 0 0 40 0 40 317 0 c216 0 364 -5 465
-16 83 -8 162 -14 176 -12 15 2 -16 8 -68 13 -73 8 50 11 522 13 l616 2 38 53
c21 28 63 86 94 127 l55 75 3 -194 c1 -107 1 -196 -2 -198z"/>
<path d="M1733 383 c15 -2 37 -2 50 0 12 2 0 4 -28 4 -27 0 -38 -2 -22 -4z"/>
<path d="M1833 373 c15 -2 39 -2 55 0 15 2 2 4 -28 4 -30 0 -43 -2 -27 -4z"/>
<path d="M1965 360 c28 -5 73 -8 100 -8 l50 1 -60 7 c-33 4 -78 8 -100 8 -38
-1 -38 -1 10 -8z"/>
</g>
</svg>
